<mxfile host="app.diagrams.net" modified="2024-05-07T05:37:21.300Z" agent="Mozilla/5.0 (Windows NT 10.0; Win64; x64) AppleWebKit/537.36 (KHTML, like Gecko) Chrome/122.0.0.0 Safari/537.36 Edg/122.0.0.0" version="24.3.1" etag="GFJObJTlLuCrZVCdzHQ4" type="github">
  <diagram name="第 1 页" id="L-sI1Rk0rFCfthu2rlib">
    <mxGraphModel>
      <root>
        <mxCell id="0" />
        <mxCell id="1" parent="0" />
      </root>
    </mxGraphModel>
  </diagram>
</mxfile>
